# MagicaVoxel @ Ephtracy

# group
o 

# material
mtllib man-3.mtl
usemtl palette

# normals
vn -1 0 0
vn 1 0 0
vn 0 0 1
vn 0 0 -1
vn 0 -1 0
vn 0 1 0

# texcoords
vt 0.248047 0.5
vt 0.791016 0.5
vt 0.798828 0.5
vt 0.830078 0.5
vt 0.845703 0.5
vt 0.857422 0.5

# verts
v -0.5 1.4 4.6
v -0.5 1.4 4.1
v -0.5 1.5 4.6
v -0.5 1.5 4.1
v -0.5 1.8 4.6
v -0.5 1.8 4.1
v -0.5 2 4.6
v -0.5 2 4.1
v -0.5 2.7 4.6
v -0.5 2.7 4.1
v 0.2 1.8 4.6
v 0.2 1.8 4.5
v 0.2 1.8 4.2
v 0.2 1.8 4.1
v 0.2 1.9 4.5
v 0.2 1.9 4.2
v 0.2 2 4.6
v 0.2 2 4.1
v 0.2 2.7 4.6
v 0.2 2.7 4.1
v 0.5 1.4 4.6
v 0.5 1.4 4.5
v 0.5 1.4 4.2
v 0.5 1.4 4.1
v 0.5 1.5 4.6
v 0.5 1.5 4.5
v 0.5 1.5 4.2
v 0.5 1.5 4.1
v 0.5 1.8 4.6
v 0.5 1.8 4.5
v 0.5 1.8 4.2
v 0.5 1.8 4.1
v 0.5 1.9 4.5
v 0.5 1.9 4.2
v 0.6 1.4 4.5
v 0.6 1.4 4.2
v 0.6 1.5 4.5
v 0.6 1.5 4.2
v 0.6 1.8 4.5
v 0.6 1.8 4.2
v -0.5 1.4 4.6
v -0.5 1.5 4.6
v -0.5 1.8 4.6
v -0.5 2 4.6
v -0.5 2.7 4.6
v -0.3 1.7 4.6
v -0.3 1.8 4.6
v -1.49012e-008 1.7 4.6
v -1.49012e-008 1.8 4.6
v 0.2 1.8 4.6
v 0.2 2 4.6
v 0.2 2.7 4.6
v 0.5 1.4 4.6
v 0.5 1.5 4.6
v 0.5 1.8 4.6
v 0.2 1.8 4.5
v 0.2 1.9 4.5
v 0.5 1.4 4.5
v 0.5 1.5 4.5
v 0.5 1.8 4.5
v 0.5 1.9 4.5
v 0.6 1.4 4.5
v 0.6 1.5 4.5
v 0.6 1.8 4.5
v 0.2 1.8 4.2
v 0.2 1.9 4.2
v 0.5 1.4 4.2
v 0.5 1.5 4.2
v 0.5 1.8 4.2
v 0.5 1.9 4.2
v 0.6 1.4 4.2
v 0.6 1.5 4.2
v 0.6 1.8 4.2
v -0.5 1.4 4.1
v -0.5 1.5 4.1
v -0.5 1.8 4.1
v -0.5 2 4.1
v -0.5 2.7 4.1
v -0.3 1.7 4.1
v -0.3 1.8 4.1
v -1.49012e-008 1.7 4.1
v -1.49012e-008 1.8 4.1
v 0.2 1.8 4.1
v 0.2 2 4.1
v 0.2 2.7 4.1
v 0.5 1.4 4.1
v 0.5 1.5 4.1
v 0.5 1.8 4.1
v -0.5 1.4 4.6
v 0.5 1.4 4.6
v 0.5 1.4 4.5
v 0.6 1.4 4.5
v 0.5 1.4 4.2
v 0.6 1.4 4.2
v -0.5 1.4 4.1
v 0.5 1.4 4.1
v 0.2 1.8 4.6
v 0.5 1.8 4.6
v 0.2 1.8 4.5
v 0.5 1.8 4.5
v 0.6 1.8 4.5
v 0.2 1.8 4.2
v 0.5 1.8 4.2
v 0.6 1.8 4.2
v 0.2 1.8 4.1
v 0.5 1.8 4.1
v 0.2 1.9 4.5
v 0.5 1.9 4.5
v 0.2 1.9 4.2
v 0.5 1.9 4.2
v -0.5 2.7 4.6
v 0.2 2.7 4.6
v -0.5 2.7 4.1
v 0.2 2.7 4.1

# faces
f 3/4/1 2/4/1 1/4/1
f 4/4/1 2/4/1 3/4/1
f 5/3/1 4/3/1 3/3/1
f 6/3/1 4/3/1 5/3/1
f 7/6/1 6/6/1 5/6/1
f 8/6/1 6/6/1 7/6/1
f 9/2/1 8/2/1 7/2/1
f 10/2/1 8/2/1 9/2/1
f 11/6/2 12/6/2 15/6/2
f 13/6/2 14/6/2 16/6/2
f 11/6/2 15/6/2 17/6/2
f 15/6/2 16/6/2 17/6/2
f 16/6/2 14/6/2 18/6/2
f 17/6/2 16/6/2 18/6/2
f 17/2/2 18/2/2 19/2/2
f 19/2/2 18/2/2 20/2/2
f 21/4/2 22/4/2 25/4/2
f 25/4/2 22/4/2 26/4/2
f 23/4/2 24/4/2 27/4/2
f 27/4/2 24/4/2 28/4/2
f 25/3/2 26/3/2 29/3/2
f 29/3/2 26/3/2 30/3/2
f 27/3/2 28/3/2 31/3/2
f 31/3/2 28/3/2 32/3/2
f 30/3/2 31/3/2 33/3/2
f 33/3/2 31/3/2 34/3/2
f 35/4/2 36/4/2 37/4/2
f 37/4/2 36/4/2 38/4/2
f 37/3/2 38/3/2 39/3/2
f 39/3/2 38/3/2 40/3/2
f 46/3/3 43/3/3 42/3/3
f 47/6/3 44/6/3 43/6/3
f 47/3/3 43/3/3 46/3/3
f 48/3/3 46/3/3 42/3/3
f 48/6/3 47/6/3 46/6/3
f 49/6/3 44/6/3 47/6/3
f 49/6/3 47/6/3 48/6/3
f 50/3/3 49/3/3 48/3/3
f 50/6/3 44/6/3 49/6/3
f 51/2/3 45/2/3 44/2/3
f 51/6/3 44/6/3 50/6/3
f 52/2/3 45/2/3 51/2/3
f 53/4/3 42/4/3 41/4/3
f 54/3/3 50/3/3 48/3/3
f 54/4/3 42/4/3 53/4/3
f 54/3/3 48/3/3 42/3/3
f 55/3/3 50/3/3 54/3/3
f 60/3/3 57/3/3 56/3/3
f 61/3/3 57/3/3 60/3/3
f 62/4/3 59/4/3 58/4/3
f 63/3/3 60/3/3 59/3/3
f 63/4/3 59/4/3 62/4/3
f 64/3/3 60/3/3 63/3/3
f 65/3/4 66/3/4 69/3/4
f 69/3/4 66/3/4 70/3/4
f 67/4/4 68/4/4 71/4/4
f 68/3/4 69/3/4 72/3/4
f 71/4/4 68/4/4 72/4/4
f 72/3/4 69/3/4 73/3/4
f 75/3/4 76/3/4 79/3/4
f 76/6/4 77/6/4 80/6/4
f 79/3/4 76/3/4 80/3/4
f 75/3/4 79/3/4 81/3/4
f 79/6/4 80/6/4 81/6/4
f 80/6/4 77/6/4 82/6/4
f 81/6/4 80/6/4 82/6/4
f 81/3/4 82/3/4 83/3/4
f 82/6/4 77/6/4 83/6/4
f 77/2/4 78/2/4 84/2/4
f 83/6/4 77/6/4 84/6/4
f 84/2/4 78/2/4 85/2/4
f 74/4/4 75/4/4 86/4/4
f 81/3/4 83/3/4 87/3/4
f 86/4/4 75/4/4 87/4/4
f 75/3/4 81/3/4 87/3/4
f 87/3/4 83/3/4 88/3/4
f 91/4/5 90/4/5 89/4/5
f 93/4/5 91/4/5 89/4/5
f 93/4/5 92/4/5 91/4/5
f 94/4/5 92/4/5 93/4/5
f 95/4/5 93/4/5 89/4/5
f 96/4/5 93/4/5 95/4/5
f 97/3/6 98/3/6 99/3/6
f 99/3/6 98/3/6 100/3/6
f 100/3/6 101/3/6 103/3/6
f 103/3/6 101/3/6 104/3/6
f 102/3/6 103/3/6 105/3/6
f 105/3/6 103/3/6 106/3/6
f 107/3/6 108/3/6 109/3/6
f 109/3/6 108/3/6 110/3/6
f 111/2/6 112/2/6 113/2/6
f 113/2/6 112/2/6 114/2/6
