# MagicaVoxel @ Ephtracy

# group
o 

# material
mtllib man-1.mtl
usemtl palette

# normals
vn -1 0 0
vn 1 0 0
vn 0 0 -1
vn 0 0 1
vn 0 -1 0
vn 0 1 0

# texcoords
vt 0.248047 0.5
vt 0.306641 0.5
vt 0.587891 0.5
vt 0.865234 0.5

# verts
v -0.6 2.3 4.1
v -0.6 2.3 4.7
v -0.6 2.4 4.1
v -0.6 2.4 4.7
v -0.5 1 4.2
v -0.5 1 4.7
v -0.5 2.3 4.2
v -0.5 2.3 4.7
v -0.5 2.4 4.2
v -0.5 2.4 4.7
v -0.5 2.9 4.2
v -0.5 2.9 4.3
v -0.5 3 4.3
v -0.5 3 4.7
v 0.4 1.4 4.2
v 0.4 1.4 4.7
v 0.4 2.3 4.2
v 0.4 2.3 4.7
v 0.4 2.4 4.2
v 0.4 2.4 4.7
v 0.4 2.9 4.2
v 0.4 2.9 4.3
v 0.4 3 4.3
v 0.4 3 4.7
v 0.5 1 4.2
v 0.5 1 4.5
v 0.5 1.3 4.5
v 0.5 1.3 4.7
v 0.5 1.4 4.2
v 0.5 1.4 4.7
v 0.5 2.3 4.1
v 0.5 2.3 4.7
v 0.5 2.4 4.1
v 0.5 2.4 4.7
v 0.6 1 4.5
v 0.6 1 4.7
v 0.6 1.3 4.5
v 0.6 1.3 4.7
v -0.6 2.3 4.1
v -0.6 2.4 4.1
v 0.5 2.3 4.1
v 0.5 2.4 4.1
v -0.5 1 4.2
v -0.5 2.3 4.2
v -0.5 2.4 4.2
v -0.5 2.9 4.2
v 0.4 1.4 4.2
v 0.4 2.3 4.2
v 0.4 2.4 4.2
v 0.4 2.9 4.2
v 0.5 1 4.2
v 0.5 1.4 4.2
v -0.5 2.9 4.3
v -0.5 3 4.3
v 0.4 2.9 4.3
v 0.4 3 4.3
v 0.5 1 4.5
v 0.5 1.3 4.5
v 0.6 1 4.5
v 0.6 1.3 4.5
v -0.6 2.3 4.7
v -0.6 2.4 4.7
v -0.5 1 4.7
v -0.5 2.3 4.7
v -0.5 2.4 4.7
v -0.5 3 4.7
v 0.4 1.4 4.7
v 0.4 2.3 4.7
v 0.4 2.4 4.7
v 0.4 3 4.7
v 0.5 1.3 4.7
v 0.5 1.4 4.7
v 0.5 2.3 4.7
v 0.5 2.4 4.7
v 0.6 1 4.7
v 0.6 1.3 4.7
v -0.5 1 4.2
v 0.5 1 4.2
v 0.5 1 4.5
v 0.6 1 4.5
v -0.5 1 4.7
v 0.6 1 4.7
v -0.6 2.3 4.1
v 0.5 2.3 4.1
v -0.5 2.3 4.2
v 0.4 2.3 4.2
v -0.6 2.3 4.7
v -0.5 2.3 4.7
v 0.4 2.3 4.7
v 0.5 2.3 4.7
v 0.5 1.3 4.5
v 0.6 1.3 4.5
v 0.5 1.3 4.7
v 0.6 1.3 4.7
v 0.4 1.4 4.2
v 0.5 1.4 4.2
v 0.4 1.4 4.7
v 0.5 1.4 4.7
v -0.6 2.4 4.1
v 0.5 2.4 4.1
v -0.5 2.4 4.2
v 0.4 2.4 4.2
v -0.6 2.4 4.7
v -0.5 2.4 4.7
v 0.4 2.4 4.7
v 0.5 2.4 4.7
v -0.5 2.9 4.2
v 0.4 2.9 4.2
v -0.5 2.9 4.3
v 0.4 2.9 4.3
v -0.5 3 4.3
v 0.4 3 4.3
v -0.5 3 4.7
v 0.4 3 4.7

# faces
f 1/4/1 2/4/1 3/4/1
f 3/4/1 2/4/1 4/4/1
f 5/1/1 6/1/1 7/1/1
f 7/1/1 6/1/1 8/1/1
f 9/4/1 10/4/1 11/4/1
f 11/4/1 10/4/1 12/4/1
f 12/4/1 10/4/1 13/4/1
f 13/4/1 10/4/1 14/4/1
f 17/1/2 16/1/2 15/1/2
f 18/1/2 16/1/2 17/1/2
f 21/4/2 20/4/2 19/4/2
f 22/4/2 20/4/2 21/4/2
f 23/4/2 20/4/2 22/4/2
f 24/4/2 20/4/2 23/4/2
f 27/1/2 26/1/2 25/1/2
f 29/1/2 27/1/2 25/1/2
f 29/1/2 28/1/2 27/1/2
f 30/1/2 28/1/2 29/1/2
f 33/4/2 32/4/2 31/4/2
f 34/4/2 32/4/2 33/4/2
f 37/1/2 36/1/2 35/1/2
f 38/1/2 36/1/2 37/1/2
f 39/4/3 40/4/3 41/4/3
f 41/4/3 40/4/3 42/4/3
f 43/1/3 44/1/3 47/1/3
f 47/1/3 44/1/3 48/1/3
f 45/4/3 46/4/3 49/4/3
f 49/4/3 46/4/3 50/4/3
f 43/1/3 47/1/3 51/1/3
f 51/1/3 47/1/3 52/1/3
f 53/4/3 54/4/3 55/4/3
f 55/4/3 54/4/3 56/4/3
f 57/1/3 58/1/3 59/1/3
f 59/1/3 58/1/3 60/1/3
f 64/4/4 62/4/4 61/4/4
f 65/4/4 62/4/4 64/4/4
f 67/1/4 64/1/4 63/1/4
f 68/4/4 66/4/4 65/4/4
f 68/1/4 64/1/4 67/1/4
f 68/4/4 65/4/4 64/4/4
f 69/4/4 66/4/4 68/4/4
f 70/4/4 66/4/4 69/4/4
f 71/1/4 67/1/4 63/1/4
f 72/1/4 67/1/4 71/1/4
f 73/4/4 69/4/4 68/4/4
f 74/4/4 69/4/4 73/4/4
f 75/1/4 71/1/4 63/1/4
f 76/1/4 71/1/4 75/1/4
f 77/1/5 78/1/5 79/1/5
f 77/1/5 79/1/5 81/1/5
f 79/1/5 80/1/5 81/1/5
f 81/1/5 80/1/5 82/1/5
f 83/4/5 84/4/5 85/4/5
f 85/4/5 84/4/5 86/4/5
f 83/4/5 85/4/5 87/4/5
f 87/4/5 85/4/5 88/4/5
f 86/4/5 84/4/5 89/4/5
f 89/4/5 84/4/5 90/4/5
f 93/1/6 92/1/6 91/1/6
f 94/1/6 92/1/6 93/1/6
f 97/1/6 96/1/6 95/1/6
f 98/1/6 96/1/6 97/1/6
f 101/4/6 100/4/6 99/4/6
f 102/4/6 100/4/6 101/4/6
f 103/4/6 101/4/6 99/4/6
f 104/4/6 101/4/6 103/4/6
f 105/4/6 100/4/6 102/4/6
f 106/4/6 100/4/6 105/4/6
f 109/4/6 108/4/6 107/4/6
f 110/4/6 108/4/6 109/4/6
f 113/4/6 112/4/6 111/4/6
f 114/4/6 112/4/6 113/4/6
